<svg width="28" height="28" viewBox="0 0 28 28" fill="none" xmlns="http://www.w3.org/2000/svg">
<path d="M25.6667 12.3334H15.6667V2.33335C15.6667 1.89133 15.4911 1.4674 15.1785 1.15484C14.866 0.842282 14.442 0.666687 14 0.666687C13.558 0.666687 13.1341 0.842282 12.8215 1.15484C12.5089 1.4674 12.3334 1.89133 12.3334 2.33335V12.3334H2.33335C1.89133 12.3334 1.4674 12.5089 1.15484 12.8215C0.842282 13.1341 0.666687 13.558 0.666687 14C0.666687 14.442 0.842282 14.866 1.15484 15.1785C1.4674 15.4911 1.89133 15.6667 2.33335 15.6667H12.3334V25.6667C12.3334 26.1087 12.5089 26.5326 12.8215 26.8452C13.1341 27.1578 13.558 27.3334 14 27.3334C14.442 27.3334 14.866 27.1578 15.1785 26.8452C15.4911 26.5326 15.6667 26.1087 15.6667 25.6667V15.6667H25.6667C26.1087 15.6667 26.5326 15.4911 26.8452 15.1785C27.1578 14.866 27.3334 14.442 27.3334 14C27.3334 13.558 27.1578 13.1341 26.8452 12.8215C26.5326 12.5089 26.1087 12.3334 25.6667 12.3334Z" fill="#195557"/>
</svg>
