<svg width="26" height="25" viewBox="0 0 26 25" fill="none" xmlns="http://www.w3.org/2000/svg">
<path d="M8.991 24.3418C10.0421 24.3418 10.8942 23.5413 10.8942 22.5537C10.8942 21.5662 10.0421 20.7656 8.991 20.7656C7.93991 20.7656 7.08783 21.5662 7.08783 22.5537C7.08783 23.5413 7.93991 24.3418 8.991 24.3418Z" fill="#195557"/>
<path d="M20.5539 24.3418C21.605 24.3418 22.4571 23.5413 22.4571 22.5537C22.4571 21.5662 21.605 20.7656 20.5539 20.7656C19.5028 20.7656 18.6508 21.5662 18.6508 22.5537C18.6508 23.5413 19.5028 24.3418 20.5539 24.3418Z" fill="#195557"/>
<path d="M25.6967 3.17862C25.618 3.08746 25.5187 3.01381 25.4061 2.96297C25.2935 2.91212 25.1703 2.88535 25.0454 2.88458H7.43453L7.98434 4.47401H23.9373L21.6788 14.0106H8.99091L5.12533 2.51106C5.08352 2.38904 5.01091 2.27833 4.9137 2.18838C4.81649 2.09843 4.69756 2.03191 4.56706 1.9945L1.09903 0.993155C0.992394 0.962368 0.880348 0.951616 0.769288 0.961513C0.658228 0.97141 0.550331 1.00176 0.451756 1.05084C0.252676 1.14995 0.103655 1.3193 0.0374756 1.52164C-0.0287036 1.72398 -0.00661964 1.94273 0.0988691 2.12978C0.204358 2.31682 0.384611 2.45683 0.599973 2.51901L3.63661 3.39319L7.51912 14.9166L6.1319 15.9815L6.02194 16.0848C5.67881 16.4563 5.48431 16.9286 5.47196 17.4204C5.45961 17.9121 5.63017 18.3926 5.95427 18.7789C6.18482 19.0423 6.47778 19.2514 6.80973 19.3893C7.14167 19.5273 7.50338 19.5904 7.86592 19.5736H21.9833C22.2077 19.5736 22.4228 19.4899 22.5815 19.3408C22.7401 19.1918 22.8292 18.9896 22.8292 18.7789C22.8292 18.5681 22.7401 18.366 22.5815 18.2169C22.4228 18.0679 22.2077 17.9842 21.9833 17.9842H7.73058C7.63318 17.981 7.53828 17.9544 7.45505 17.9067C7.37182 17.8591 7.30308 17.7921 7.25546 17.7122C7.20784 17.6323 7.18295 17.5422 7.1832 17.4506C7.18346 17.3591 7.20884 17.2691 7.2569 17.1894L9.29542 15.6H22.3555C22.551 15.6045 22.7422 15.5452 22.8964 15.4322C23.0506 15.3191 23.1584 15.1594 23.2014 14.9801L25.8828 3.85413C25.9085 3.73565 25.9051 3.61322 25.8728 3.49616C25.8406 3.3791 25.7803 3.2705 25.6967 3.17862Z" fill="#195557"/>
</svg>
