<svg width="9" height="8" viewBox="0 0 9 8" fill="none" xmlns="http://www.w3.org/2000/svg">
<path d="M0.0890016 1.09833C0.0539427 1.16574 0.0379019 1.24141 0.0425997 1.31724C0.0472975 1.39307 0.0725574 1.46619 0.115667 1.52875L3.86567 6.94542C3.90401 7.00077 3.9552 7.046 4.01485 7.07724C4.0745 7.10848 4.14083 7.1248 4.20817 7.1248C4.2755 7.1248 4.34183 7.10848 4.40148 7.07724C4.46113 7.046 4.51232 7.00077 4.55067 6.94542L8.30067 1.52875C8.34392 1.46624 8.36925 1.39309 8.37391 1.31721C8.37857 1.24134 8.36239 1.16564 8.32711 1.0983C8.29183 1.03097 8.23881 0.974568 8.17378 0.935207C8.10875 0.895846 8.03418 0.875026 7.95817 0.875L0.458168 0.875C0.382111 0.874987 0.307501 0.895793 0.242425 0.935161C0.17735 0.974529 0.124291 1.03096 0.0890016 1.09833Z" fill="#195557"/>
</svg>
